<svg xmlns="http://www.w3.org/2000/svg" width="900" height="390" viewBox="0 0 900 390">
<rect width="900" height="390" fill="white"/>
<text x="34" y="28" font-family="sans-serif" font-size="18" font-weight="700">Nominal vs +0.50° AOI geometry</text>
<text x="34" y="49" font-family="sans-serif" font-size="12" fill="#555">Synthetic advertising layout · X marks are selected fixations reassigned by dilation</text>
<g transform="translate(45 60) scale(.78 .39)"><rect x="100" y="80" width="300" height="100" fill="none" stroke="#777" stroke-width="3" stroke-dasharray="10 8"/><rect x="300" y="190" width="400" height="150" fill="none" stroke="#777" stroke-width="3" stroke-dasharray="10 8"/><rect x="300" y="360" width="400" height="120" fill="none" stroke="#777" stroke-width="3" stroke-dasharray="10 8"/><rect x="300" y="500" width="400" height="90" fill="none" stroke="#777" stroke-width="3" stroke-dasharray="10 8"/><rect x="680" y="600" width="240" height="110" fill="none" stroke="#777" stroke-width="3" stroke-dasharray="10 8"/><rect x="89.9" y="66.55" width="320.20000000000005" height="126.89999999999999" fill="none" stroke="#4f5bd5" stroke-width="4"/><rect x="289.9" y="176.55" width="420.20000000000005" height="176.89999999999998" fill="none" stroke="#4f5bd5" stroke-width="4"/><rect x="289.9" y="346.55" width="420.20000000000005" height="146.89999999999998" fill="none" stroke="#4f5bd5" stroke-width="4"/><rect x="289.9" y="486.55" width="420.20000000000005" height="116.90000000000003" fill="none" stroke="#4f5bd5" stroke-width="4"/><rect x="669.9" y="586.55" width="260.20000000000005" height="136.9000000000001" fill="none" stroke="#4f5bd5" stroke-width="4"/><text x="250" y="130" text-anchor="middle" dominant-baseline="middle" font-family="sans-serif" font-size="28">headline</text><text x="500" y="265" text-anchor="middle" dominant-baseline="middle" font-family="sans-serif" font-size="28">image</text><text x="500" y="420" text-anchor="middle" dominant-baseline="middle" font-family="sans-serif" font-size="28">claim</text><text x="500" y="545" text-anchor="middle" dominant-baseline="middle" font-family="sans-serif" font-size="28">disclosure</text><text x="800" y="655" text-anchor="middle" dominant-baseline="middle" font-family="sans-serif" font-size="28">cta</text><path d="M468.005,472.358 L484.005,488.358 M484.005,472.358 L468.005,488.358" stroke="#b42318" stroke-width="6"/><path d="M455.069,584.863 L471.069,600.863 M471.069,584.863 L455.069,600.863" stroke="#b42318" stroke-width="6"/></g><line x1="570" y1="355" x2="610" y2="355" stroke="#777" stroke-width="2" stroke-dasharray="8 6"/><text x="618" y="359" font-family="sans-serif" font-size="12">nominal</text>
<line x1="700" y1="355" x2="740" y2="355" stroke="#4f5bd5" stroke-width="3"/><text x="748" y="359" font-family="sans-serif" font-size="12">+0.50°</text></svg>