<svg xmlns="http://www.w3.org/2000/svg" viewBox="0 0 1120 535" role="img" aria-label="Eyeprocesspy · estimation-aware gaze evidence"><rect x="0" y="0" width="1120" height="535" rx="0" fill="#F6F9FB" stroke="none"/><rect x="30" y="24" width="1060" height="80" rx="18" fill="#FFFFFF" stroke="#E2E8F0"/><text x="52" y="57" font-size="25" fill="#102E3A" font-weight="700" text-anchor="start" font-family="Arial, sans-serif">Eyeprocesspy · estimation-aware gaze evidence</text><text x="52" y="83" font-size="13" fill="#516576" font-weight="400" text-anchor="start" font-family="Arial, sans-serif">Timestamp integrity, participant pairing and missingness scenarios</text><rect x="30" y="120" width="343" height="359" rx="15" fill="#FFFFFF" stroke="#DDE7EA"/><text x="48" y="153" font-size="17" fill="#153845" font-weight="700" text-anchor="start" font-family="Arial, sans-serif">Recorded interval irregularity</text><rect x="393" y="120" width="343" height="359" rx="15" fill="#FFFFFF" stroke="#DDE7EA"/><text x="411" y="153" font-size="17" fill="#153845" font-weight="700" text-anchor="start" font-family="Arial, sans-serif">Matched participant response</text><rect x="756" y="120" width="343" height="359" rx="15" fill="#FFFFFF" stroke="#DDE7EA"/><text x="774" y="153" font-size="17" fill="#153845" font-weight="700" text-anchor="start" font-family="Arial, sans-serif">Unobserved-outcome sensitivity</text><text x="560" y="510" font-size="12" fill="#657C88" font-weight="600" text-anchor="middle" font-family="Arial, sans-serif">SYNTHETIC ILLUSTRATION · NOT EMPIRICAL RESULTS · NO METHOD QUALIFICATION</text><line x1="70" y1="409" x2="345" y2="409" stroke="#96ACB5" stroke-width="1.3" /><line x1="70" y1="206" x2="70" y2="409" stroke="#96ACB5" stroke-width="1.3" /><rect x="82" y="397" width="12" height="12" rx="3" fill="#60AAB4" stroke="none"/><rect x="86.1" y="397" width="12" height="12" rx="3" fill="#60AAB4" stroke="none"/><rect x="123" y="241" width="12" height="168" rx="3" fill="#60AAB4" stroke="none"/><rect x="303.4" y="397" width="12" height="12" rx="3" fill="#60AAB4" stroke="none"/><line x1="123" y1="215" x2="123" y2="410" stroke="#C47E61" stroke-width="1.5" stroke-dasharray="5 4"/><text x="108" y="425" font-size="11" fill="#516576" font-weight="400" text-anchor="start" font-family="Arial, sans-serif">10 ms</text><text x="90" y="190" font-size="12" fill="#B27655" font-weight="400" text-anchor="start" font-family="Arial, sans-serif">Nominal</text><text x="210" y="460" font-size="12" fill="#516576" font-weight="400" text-anchor="middle" font-family="Arial, sans-serif">Gap + quantized stamp</text><line x1="428" y1="407" x2="694" y2="407" stroke="#CBD5E1" stroke-width="1" /><text x="490" y="426" font-size="12" fill="#516576" font-weight="400" text-anchor="middle" font-family="Arial, sans-serif">Baseline</text><text x="625" y="426" font-size="12" fill="#516576" font-weight="400" text-anchor="middle" font-family="Arial, sans-serif">Stimulus</text><line x1="490" y1="338" x2="625" y2="324" stroke="#A8BEC8" stroke-width="1.3" /><circle cx="490" cy="338" r="3.7" fill="#416E86" opacity="0.75"/><circle cx="625" cy="324" r="3.7" fill="#229A9A" opacity="0.82"/><line x1="490" y1="402.84969919624325" x2="625" y2="367.3236452601542" stroke="#A8BEC8" stroke-width="1.3" /><circle cx="490" cy="402.84969919624325" r="3.7" fill="#416E86" opacity="0.75"/><circle cx="625" cy="367.3236452601542" r="3.7" fill="#229A9A" opacity="0.82"/><line x1="490" y1="356.467200483592" x2="625" y2="311.3936525167902" stroke="#A8BEC8" stroke-width="1.3" /><circle cx="490" cy="356.467200483592" r="3.7" fill="#416E86" opacity="0.75"/><circle cx="625" cy="311.3936525167902" r="3.7" fill="#229A9A" opacity="0.82"/><line x1="490" y1="279.3481929400942" x2="625" y2="254.0341719278424" stroke="#A8BEC8" stroke-width="1.3" /><circle cx="490" cy="279.3481929400942" r="3.7" fill="#416E86" opacity="0.75"/><circle cx="625" cy="254.0341719278424" r="3.7" fill="#229A9A" opacity="0.82"/><line x1="490" y1="326.23507010806446" x2="625" y2="301.75270790421604" stroke="#A8BEC8" stroke-width="1.3" /><circle cx="490" cy="326.23507010806446" r="3.7" fill="#416E86" opacity="0.75"/><circle cx="625" cy="301.75270790421604" r="3.7" fill="#229A9A" opacity="0.82"/><line x1="490" y1="404.27999860648436" x2="625" y2="359.31958841973506" stroke="#A8BEC8" stroke-width="1.3" /><circle cx="490" cy="404.27999860648436" r="3.7" fill="#416E86" opacity="0.75"/><circle cx="625" cy="359.31958841973506" r="3.7" fill="#229A9A" opacity="0.82"/><line x1="490" y1="362.7271091145054" x2="625" y2="334.2359812433759" stroke="#A8BEC8" stroke-width="1.3" /><circle cx="490" cy="362.7271091145054" r="3.7" fill="#416E86" opacity="0.75"/><circle cx="625" cy="334.2359812433759" r="3.7" fill="#229A9A" opacity="0.82"/><line x1="490" y1="290.2182544016998" x2="625" y2="263.61674281955123" stroke="#A8BEC8" stroke-width="1.3" /><circle cx="490" cy="290.2182544016998" r="3.7" fill="#416E86" opacity="0.75"/><circle cx="625" cy="263.61674281955123" r="3.7" fill="#229A9A" opacity="0.82"/><line x1="490" y1="315.8056249199739" x2="625" y2="275.5733071578188" stroke="#A8BEC8" stroke-width="1.3" /><circle cx="490" cy="315.8056249199739" r="3.7" fill="#416E86" opacity="0.75"/><circle cx="625" cy="275.5733071578188" r="3.7" fill="#229A9A" opacity="0.82"/><line x1="490" y1="386.2270655930973" x2="625" y2="352.7377385973736" stroke="#A8BEC8" stroke-width="1.3" /><circle cx="490" cy="386.2270655930973" r="3.7" fill="#416E86" opacity="0.75"/><circle cx="625" cy="352.7377385973736" r="3.7" fill="#229A9A" opacity="0.82"/><line x1="490" y1="382.017270409427" x2="625" y2="361.85913506404034" stroke="#A8BEC8" stroke-width="1.3" /><circle cx="490" cy="382.017270409427" r="3.7" fill="#416E86" opacity="0.75"/><circle cx="625" cy="361.85913506404034" r="3.7" fill="#229A9A" opacity="0.82"/><line x1="490" y1="305.2928794578526" x2="625" y2="261.8323455960299" stroke="#A8BEC8" stroke-width="1.3" /><circle cx="490" cy="305.2928794578526" r="3.7" fill="#416E86" opacity="0.75"/><circle cx="625" cy="261.8323455960299" r="3.7" fill="#229A9A" opacity="0.82"/><line x1="490" y1="292.94076519369946" x2="625" y2="255.2761469268774" stroke="#A8BEC8" stroke-width="1.3" /><circle cx="490" cy="292.94076519369946" r="3.7" fill="#416E86" opacity="0.75"/><circle cx="625" cy="255.2761469268774" r="3.7" fill="#229A9A" opacity="0.82"/><line x1="490" y1="379.33239218317607" x2="625" y2="361.0418665517628" stroke="#A8BEC8" stroke-width="1.3" /><circle cx="490" cy="379.33239218317607" r="3.7" fill="#416E86" opacity="0.75"/><circle cx="625" cy="361.0418665517628" r="3.7" fill="#229A9A" opacity="0.82"/><line x1="490" y1="398.1993383121634" x2="625" y2="365.646275651619" stroke="#A8BEC8" stroke-width="1.3" /><circle cx="490" cy="398.1993383121634" r="3.7" fill="#416E86" opacity="0.75"/><circle cx="625" cy="365.646275651619" r="3.7" fill="#229A9A" opacity="0.82"/><text x="544" y="190" font-size="12" fill="#657C88" font-weight="400" text-anchor="start" font-family="Arial, sans-serif">Participant-level units</text><text x="540" y="459" font-size="12" fill="#516576" font-weight="400" text-anchor="middle" font-family="Arial, sans-serif">Links preserve pairing</text><line x1="794" y1="409" x2="1054" y2="409" stroke="#CBD5E1" stroke-width="1" /><line x1="794" y1="207" x2="794" y2="410" stroke="#CBD5E1" stroke-width="1" /><line x1="800" y1="340" x2="1053" y2="225" stroke="#2396A6" stroke-width="3" /><line x1="798" y1="282" x2="1050" y2="282" stroke="#BD8B66" stroke-width="1.4" stroke-dasharray="5 5"/><circle cx="800" cy="340" r="2.8" fill="#2396A6" opacity="0.9"/><circle cx="831.5" cy="325.625" r="2.8" fill="#2396A6" opacity="0.9"/><circle cx="863" cy="311.25" r="2.8" fill="#2396A6" opacity="0.9"/><circle cx="894.5" cy="296.875" r="2.8" fill="#2396A6" opacity="0.9"/><circle cx="926" cy="282.5" r="2.8" fill="#2396A6" opacity="0.9"/><circle cx="957.5" cy="268.125" r="2.8" fill="#2396A6" opacity="0.9"/><circle cx="989" cy="253.75" r="2.8" fill="#2396A6" opacity="0.9"/><circle cx="1020.5" cy="239.375" r="2.8" fill="#2396A6" opacity="0.9"/><circle cx="1052" cy="225" r="2.8" fill="#2396A6" opacity="0.9"/><text x="915" y="190" font-size="12" fill="#657C88" font-weight="400" text-anchor="start" font-family="Arial, sans-serif">Scenario mean</text><text x="805" y="432" font-size="12" fill="#516576" font-weight="400" text-anchor="start" font-family="Arial, sans-serif">− delta</text><text x="1034" y="432" font-size="12" fill="#516576" font-weight="400" text-anchor="end" font-family="Arial, sans-serif">+ delta</text><text x="930" y="460" font-size="12" fill="#516576" font-weight="400" text-anchor="middle" font-family="Arial, sans-serif">Assumption, not MNAR test</text></svg>